<svg width="19.490967" height="21.010002" viewBox="0 0 19.491 21.01" fill="none" xmlns="http://www.w3.org/2000/svg" xmlns:xlink="http://www.w3.org/1999/xlink">
	<desc>
			Created with Pixso.
	</desc>
	<defs/>
	<path id="Vector" d="M19.48 18.7L17.75 3.96L14.56 3.96C14.18 1.7 12.18 0 9.75 0C7.31 0 5.31 1.7 4.94 3.96L1.75 3.96L0.02 18.7C-0.09 19.52 0.23 20.02 0.5 20.35C0.77 20.62 1.26 21.01 2.18 21.01L17.31 21.01C18.02 21.01 18.61 20.79 18.99 20.29C19.37 19.91 19.53 19.3 19.48 18.7ZM9.75 2.2C10.94 2.2 11.96 2.97 12.29 3.96L7.15 3.96C7.53 2.91 8.56 2.2 9.75 2.2ZM2.18 18.81L3.69 6.16L4.88 6.16L4.88 7.81C4.88 8.41 5.37 8.91 5.96 8.91C6.56 8.91 7.04 8.41 7.04 7.81L7.04 6.16L12.45 6.16L12.45 7.81C12.45 8.41 12.94 8.91 13.53 8.91C14.12 8.91 14.61 8.41 14.61 7.81L14.61 6.16L15.8 6.16L17.31 18.81L2.18 18.81Z" fill="#000000" fill-opacity="1.000000" fill-rule="nonzero"/>
</svg>
